<svg width="264" height="264" viewBox="0 0 264 264" fill="none" xmlns="http://www.w3.org/2000/svg">
<g clip-path="url(#clip0_13_74)">
<path fill-rule="evenodd" clip-rule="evenodd" d="M210.078 117.021C167.534 91.7563 97.35 89.4298 56.7204 101.759C50.1996 103.725 43.3092 100.055 41.3292 93.5215C39.3492 87.0007 43.032 80.1101 49.5528 78.1301C96.1884 63.9665 173.699 66.6977 222.684 95.7773C228.545 99.2621 230.472 106.842 226.987 112.703C223.529 118.564 215.926 120.506 210.078 117.021ZM208.692 154.443C205.709 159.287 199.373 160.803 194.528 157.833C159.06 136.026 104.966 129.716 63.0036 142.454C57.552 144.091 51.81 141.028 50.16 135.59C48.5232 130.152 51.5856 124.407 57.024 122.757C104.953 108.211 164.551 115.261 205.3 140.302C210.144 143.272 211.662 149.611 208.692 154.443ZM192.535 190.382C190.159 194.262 185.104 195.49 181.223 193.114C150.229 174.172 111.21 169.897 65.2608 180.391C60.8388 181.408 56.4168 178.633 55.4136 174.197C54.3972 169.775 57.156 165.372 61.6044 164.355C111.883 152.858 155.008 157.805 189.803 179.07C193.684 181.446 194.911 186.501 192.535 190.382ZM132 0C59.0964 0 0 59.0964 0 132C0 204.904 59.0964 264 132 264C204.904 264 264 204.904 264 132C264 59.1096 204.904 0 132 0Z" fill="#FF3D3F"/>
</g>
<defs>
<clipPath id="clip0_13_74">
<rect width="264" height="264" fill="white"/>
</clipPath>
</defs>
</svg>
